<svg width="9" height="11" viewBox="0 0 9 11" fill="none" xmlns="http://www.w3.org/2000/svg">
<path d="M1.93245 -3.05176e-05C1.11497 -3.05176e-05 0.445971 0.66901 0.445971 1.48642C0.445971 1.83789 0.569776 2.16022 0.77581 2.41552C0.331512 2.53392 0 2.93916 0 3.41881V6.6891C0 7.10109 0.241699 7.45516 0.594645 7.62741V9.662C0.594645 10.398 1.19646 10.9998 1.93253 10.9998C2.6686 10.9998 3.27041 10.3981 3.27041 9.662V7.62741C3.62337 7.45515 3.86506 7.10109 3.86506 6.6891V3.41881C3.86506 2.93916 3.53357 2.53384 3.08925 2.41541C3.29528 2.16023 3.41909 1.83781 3.41909 1.48632C3.41909 0.668877 2.74983 -3.05176e-05 1.93245 -3.05176e-05ZM6.77052 -3.05176e-05C5.95304 -3.05176e-05 5.28404 0.66901 5.28404 1.48642C5.28404 1.85689 5.42008 2.19624 5.64632 2.45733C5.27688 2.60604 4.98664 2.9598 4.98664 3.41889V5.05406C4.98664 5.20267 4.96601 5.33789 5.05632 5.51854C5.08079 5.56742 5.13678 5.59835 5.18178 5.63934L4.57323 6.85173C4.52647 6.94389 4.53082 7.05368 4.58484 7.14178C4.63886 7.22989 4.73467 7.28364 4.83805 7.28375H5.4327V9.66213C5.43487 10.3971 6.03451 11 6.77058 11C7.50665 11 8.10629 10.3971 8.10846 9.66213V7.28375H8.70311C8.80649 7.28364 8.90219 7.22989 8.95621 7.14178C9.01013 7.05368 9.01459 6.94389 8.96772 6.85173L8.35917 5.63934C8.40407 5.59835 8.46016 5.56742 8.48463 5.51854C8.57495 5.33787 8.55431 5.20265 8.55431 5.05406V3.41889C8.55431 2.9598 8.26408 2.60602 7.89463 2.45733C8.12099 2.19634 8.25691 1.85689 8.25691 1.48642C8.25691 0.668983 7.5879 -3.05176e-05 6.77052 -3.05176e-05ZM1.93245 0.594598C2.42859 0.594598 2.82439 0.99038 2.82439 1.48653C2.82439 1.98268 2.42862 2.37846 1.93245 2.37846C1.43631 2.37846 1.04051 1.98268 1.04051 1.48653C1.04051 0.99038 1.43628 0.594598 1.93245 0.594598ZM6.77052 0.594598C7.26666 0.594598 7.66246 0.99038 7.66246 1.48653C7.66246 1.98268 7.26669 2.37846 6.77052 2.37846C6.27438 2.37846 5.87858 1.98268 5.87858 1.48653C5.87858 0.99038 6.27436 0.594598 6.77052 0.594598ZM1.04056 2.97298H2.82442C3.07659 2.97298 3.27039 3.16673 3.27039 3.41889V6.68918C3.27039 6.90897 3.10801 7.10002 2.91265 7.13977C2.77412 7.16851 2.675 7.29086 2.67572 7.43242V9.66222C2.67572 10.0791 2.34941 10.4055 1.93248 10.4055C1.51555 10.4055 1.18924 10.0791 1.18924 9.66222V7.43242C1.18997 7.29087 1.09084 7.16842 0.952313 7.13966C0.756963 7.09992 0.594576 6.90887 0.594576 6.68907V3.41879C0.594576 3.16662 0.788386 2.97298 1.04056 2.97298ZM6.02728 2.97298H7.51376C7.73068 2.97298 7.95973 3.13694 7.95973 3.41889V5.05406C7.95973 5.16469 7.95465 5.18461 7.95506 5.20267C7.85397 5.20516 7.76096 5.25891 7.70829 5.34536C7.65572 5.4318 7.65063 5.539 7.69501 5.63001L8.22455 6.68912H7.81115C7.6469 6.68923 7.51388 6.82226 7.51377 6.98642V9.65738V9.66194C7.51004 10.0776 7.18581 10.4052 6.77053 10.4052C6.35524 10.4052 6.03093 10.0776 6.02729 9.66194V6.98647C6.02729 6.8223 5.89416 6.68925 5.73002 6.68917H5.31662L5.84615 5.63006C5.89043 5.53905 5.88535 5.43186 5.83278 5.34541C5.7801 5.25896 5.6872 5.20521 5.586 5.20272C5.58641 5.18466 5.58133 5.16474 5.58133 5.05411V3.41894C5.58133 3.137 5.81036 2.97298 6.02728 2.97298Z" fill="#808191"/>
</svg>
