<svg width="18" height="18" viewBox="0 0 18 18" fill="none" xmlns="http://www.w3.org/2000/svg">
<path fill-rule="evenodd" clip-rule="evenodd" d="M5.20429 3.19329C4.20267 3.44369 3.5 4.34366 3.5 5.37611V14.8694H2.75C2.33579 14.8694 2 15.2052 2 15.6194C2 16.0336 2.33579 16.3694 2.75 16.3694H16.25C16.6642 16.3694 17 16.0336 17 15.6194C17 15.2052 16.6642 14.8694 16.25 14.8694H15.5V8.11938C15.5 6.87674 14.4926 5.86938 13.25 5.86938H12.5V4.25111C12.5 2.78732 11.1244 1.71327 9.7043 2.06829L5.20429 3.19329ZM14 8.11938V14.8694H12.5V7.36938H13.25C13.6642 7.36938 14 7.70517 14 8.11938ZM7.25 11.8694C6.83579 11.8694 6.5 12.2052 6.5 12.6194C6.5 13.0336 6.83579 13.3694 7.25 13.3694H8.75C9.16421 13.3694 9.5 13.0336 9.5 12.6194C9.5 12.2052 9.16421 11.8694 8.75 11.8694H7.25ZM6.5 9.61938C6.5 9.20517 6.83579 8.86938 7.25 8.86938H8.75C9.16421 8.86938 9.5 9.20517 9.5 9.61938C9.5 10.0336 9.16421 10.3694 8.75 10.3694H7.25C6.83579 10.3694 6.5 10.0336 6.5 9.61938ZM7.25 5.86938C6.83579 5.86938 6.5 6.20517 6.5 6.61938C6.5 7.0336 6.83579 7.36938 7.25 7.36938H8.75C9.16421 7.36938 9.5 7.0336 9.5 6.61938C9.5 6.20517 9.16421 5.86938 8.75 5.86938H7.25Z" fill="#fff"/>
</svg>
