<svg width="14" height="12" viewBox="0 0 14 12" fill="none" xmlns="http://www.w3.org/2000/svg">
<path d="M11.6666 6.19432V1.22516L2.33306 1.2223C2.33306 1.2223 2.33364 4.66864 2.33325 5.86145C2.34732 4.86161 3.12301 4.05576 4.08403 4.05576H5.24879C6.21579 4.05576 6.99977 4.87861 6.99977 5.88909C6.99977 4.87656 7.78082 4.05576 8.75075 4.05576H9.91551C10.8825 4.05576 11.6665 4.87861 11.6665 5.88909L11.6666 6.19432ZM1.16655 6.49991V1.22511C1.16655 0.548453 1.69048 0 2.33316 0H11.6667C12.311 0 12.8333 0.550103 12.8333 1.22511V6.49991H13.4163C13.7387 6.49991 14 6.77265 14 7.10954V11.3904C14 11.727 13.7412 12 13.4168 12H11.6666C11.3444 12 10.9653 11.7526 10.8223 11.4533L10.7609 11.3246C10.6168 11.0226 10.2369 10.7777 9.91414 10.7777H4.08586C3.76234 10.7777 3.38196 11.0251 3.23909 11.3246L3.17766 11.4533C3.03352 11.7552 2.65783 12 2.33341 12H0.583202C0.261126 12 0 11.7273 0 11.3904V7.10954C0 6.77286 0.261026 6.49991 0.583702 6.49991H1.16655ZM1.16655 10.7776H2.19546C2.53648 10.0633 3.32134 9.55544 4.08569 9.55544H9.91396C10.6781 9.55544 11.4622 10.0612 11.8042 10.7776H12.8331V7.72221H1.16655V10.7776ZM5.83307 6.49991V5.88883C5.83307 5.55255 5.57077 5.27765 5.24879 5.27765H4.08404C3.75961 5.27765 3.49976 5.55009 3.49976 5.88883V6.49991H5.83307ZM10.4998 6.49991V5.88883C10.4998 5.55255 10.2375 5.27765 9.91556 5.27765H8.75081C8.42638 5.27765 8.16653 5.55009 8.16653 5.88883V6.49991H10.4998Z" fill="#808191"/>
</svg>
