<svg width="14" height="14" viewBox="0 0 14 14" fill="none" xmlns="http://www.w3.org/2000/svg">
<path d="M13.8954 7.03295C13.8954 7.21827 13.8548 7.39516 13.7738 7.56299C13.6926 7.73104 13.5884 7.87859 13.461 8.00597C13.3333 8.13374 13.183 8.2378 13.0091 8.31876C12.8355 8.39982 12.6558 8.4404 12.4706 8.4404C12.2274 8.4404 11.9955 8.37692 11.7756 8.24935C11.5554 8.12209 11.3817 7.95405 11.2543 7.74551H7.72756V11.2725C7.93589 11.4002 8.10384 11.5739 8.23141 11.7938C8.35867 12.014 8.42245 12.2455 8.42245 12.4888C8.42245 12.6742 8.38468 12.851 8.30955 13.0188C8.23412 13.1869 8.12985 13.3344 7.99676 13.4618C7.86337 13.5896 7.7128 13.6936 7.54507 13.7746C7.37702 13.8556 7.20024 13.8962 7.01502 13.8962C6.8296 13.8962 6.65281 13.8557 6.48507 13.7746C6.31702 13.6936 6.16634 13.5896 6.03338 13.4618C5.89998 13.3345 5.79582 13.1869 5.72059 13.0188C5.64515 12.8509 5.60769 12.6742 5.60769 12.4888C5.60769 12.2456 5.67117 12.014 5.79874 11.7938C5.926 11.5739 6.09404 11.4002 6.30258 11.2725L6.30278 7.74525H2.70638C2.57882 7.95378 2.40493 8.12184 2.18508 8.2491C1.9649 8.37666 1.73338 8.44015 1.4901 8.44015C1.30467 8.44015 1.12788 8.39967 0.96015 8.31851C0.792102 8.23755 0.641422 8.13348 0.508453 8.00572C0.375261 7.87845 0.270997 7.73081 0.195665 7.56274C0.120229 7.39499 0.0827637 7.21829 0.0827637 7.03289C0.0827637 6.84787 0.120229 6.66816 0.195665 6.49431C0.270799 6.32054 0.375264 6.17018 0.508453 6.04261C0.641545 5.91515 0.792108 5.81108 0.96015 5.72982C1.12789 5.64886 1.30477 5.60818 1.4901 5.60818C1.73328 5.60818 1.96491 5.67187 2.18508 5.79923C2.40495 5.9268 2.57874 6.09453 2.70638 6.30308H6.30304L6.30294 2.70668C6.09441 2.57921 5.92635 2.40543 5.79909 2.18527C5.67153 1.96549 5.60804 1.73357 5.60804 1.49029C5.60804 1.30527 5.64551 1.12839 5.72094 0.960342C5.79608 0.792598 5.90034 0.641922 6.03373 0.508645C6.16683 0.375553 6.31739 0.27129 6.48543 0.195857C6.65328 0.120722 6.82995 0.0828552 7.01538 0.0828552C7.2006 0.0828552 7.37738 0.120725 7.54542 0.195857C7.71317 0.271192 7.86384 0.375556 7.99712 0.508645C8.13021 0.642038 8.23428 0.792608 8.30991 0.960342C8.38505 1.12839 8.42281 1.30517 8.42281 1.49029C8.42281 1.73347 8.35903 1.96549 8.23176 2.18527C8.1042 2.40545 7.93625 2.57921 7.72792 2.70668V6.30333H11.2549C11.3824 6.09481 11.556 5.92706 11.7762 5.79949C11.9961 5.67202 12.2279 5.60844 12.4712 5.60844C12.6564 5.60844 12.8361 5.64902 13.0098 5.73008C13.1835 5.81114 13.3339 5.9154 13.4617 6.04287C13.5889 6.17043 13.6931 6.32081 13.7745 6.49457C13.855 6.66804 13.8956 6.84783 13.8956 7.03287L13.8954 7.03295Z" fill="#808191"/>
</svg>
