<svg width="24" height="25" viewBox="0 0 24 25" fill="none" xmlns="http://www.w3.org/2000/svg">
<path d="M10.1359 4.34334C10.7585 2.55222 13.2916 2.55222 13.9142 4.34334L14.8597 7.0635C15.1344 7.85364 15.8717 8.38938 16.7081 8.40642L19.5873 8.4651C21.4831 8.50373 22.2659 10.9128 20.7548 12.0584L18.46 13.7983C17.7934 14.3036 17.5117 15.1705 17.754 15.9712L18.5879 18.7276C19.137 20.5426 17.0877 22.0315 15.5312 20.9484L13.1674 19.3035C12.4808 18.8257 11.5693 18.8257 10.8827 19.3035L8.51887 20.9484C6.96239 22.0315 4.91309 20.5426 5.4622 18.7276L6.29612 15.9712C6.53835 15.1705 6.2567 14.3036 5.5901 13.7983L3.29526 12.0584C1.7842 10.9128 2.56696 8.50373 4.46281 8.4651L7.34201 8.40642C8.17835 8.38938 8.91574 7.85364 9.19039 7.0635L10.1359 4.34334Z" fill="#F2C94C"/>
</svg>
