<svg width="12" height="15" viewBox="0 0 12 15" fill="none" xmlns="http://www.w3.org/2000/svg">
<path fill-rule="evenodd" clip-rule="evenodd" d="M12 6.00441C12 7.42437 11.5075 8.72921 10.684 9.75716H10.6875C10.6875 9.75716 8.60223 12.5497 6.98682 14.527C6.47145 15.1579 5.52874 15.1576 5.01367 14.5265C3.40341 12.5535 1.32083 9.76322 1.32083 9.76322L1.31597 9.75716C0.492539 8.72921 0 7.42437 0 6.00441C0 2.68827 2.68629 0 6 0C9.31371 0 12 2.68827 12 6.00441ZM8.24036 5.97842C8.24036 7.21659 7.23736 8.22032 6.0001 8.22032C4.76284 8.22032 3.75984 7.21659 3.75984 5.97842C3.75984 4.74025 4.76284 3.73651 6.0001 3.73651C7.23736 3.73651 8.24036 4.74025 8.24036 5.97842Z" fill="#11142D"/>
</svg>
