<svg width="18" height="18" viewBox="0 0 18 18" fill="none" xmlns="http://www.w3.org/2000/svg">
<path d="M2.40323 3.96438C2.26056 4.16893 2.3481 4.44059 2.56015 4.57186L9.10515 8.62353C9.34703 8.77327 9.65281 8.77327 9.89469 8.62353L16.4398 4.57179C16.6519 4.44052 16.7394 4.16885 16.5967 3.9643C16.1901 3.38139 15.5146 3 14.75 3H4.25C3.48536 3 2.80981 3.38142 2.40323 3.96438Z" fill="#808191"/>
<path d="M17 6.88674C17 6.49498 16.5699 6.2554 16.2368 6.4616L10.6842 9.89893C9.95858 10.3481 9.04126 10.3481 8.31562 9.89893L2.76318 6.4617C2.43008 6.2555 2 6.49508 2 6.88683V12.75C2 13.9926 3.00736 15 4.25 15H14.75C15.9926 15 17 13.9926 17 12.75V6.88674Z" fill="#808191"/>
</svg>
