<svg width="18" height="19" viewBox="0 0 18 19" fill="none" xmlns="http://www.w3.org/2000/svg">
<path d="M9 10.25C9.41421 10.25 9.75 9.91421 9.75 9.5C9.75 9.08579 9.41421 8.75 9 8.75C8.58579 8.75 8.25 9.08579 8.25 9.5C8.25 9.91421 8.58579 10.25 9 10.25Z" stroke="#808191" stroke-width="2" stroke-linecap="round" stroke-linejoin="round"/>
<path d="M14.25 10.25C14.6642 10.25 15 9.91421 15 9.5C15 9.08579 14.6642 8.75 14.25 8.75C13.8358 8.75 13.5 9.08579 13.5 9.5C13.5 9.91421 13.8358 10.25 14.25 10.25Z" stroke="#808191" stroke-width="2" stroke-linecap="round" stroke-linejoin="round"/>
<path d="M3.75 10.25C4.16421 10.25 4.5 9.91421 4.5 9.5C4.5 9.08579 4.16421 8.75 3.75 8.75C3.33579 8.75 3 9.08579 3 9.5C3 9.91421 3.33579 10.25 3.75 10.25Z" stroke="#808191" stroke-width="2" stroke-linecap="round" stroke-linejoin="round"/>
</svg>
