<svg width="18" height="18" viewBox="0 0 18 18" fill="none" xmlns="http://www.w3.org/2000/svg">
<path d="M2.32455 6.69457C1.49705 5.03392 2.33198 3.20118 3.92298 2.24658C4.68897 1.78698 5.67896 1.98644 6.20722 2.7068L7.37922 4.30498C7.87805 4.98521 7.95451 5.8873 7.57727 6.64178L7.26997 7.25637C7.18102 7.43428 7.16695 7.64009 7.25795 7.81696C7.42373 8.13921 7.77677 8.71029 8.45687 9.39039C9.13696 10.0705 9.70804 10.4235 10.0303 10.5893C10.2072 10.6803 10.413 10.6662 10.5909 10.5773L11.2055 10.27C11.9599 9.89275 12.862 9.9692 13.5423 10.468L15.1405 11.64C15.8608 12.1683 16.0603 13.1583 15.6007 13.9243C14.6461 15.5153 12.8133 16.3502 11.1527 15.5227C9.75309 14.8253 7.96459 13.6711 6.07038 11.7769C4.17617 9.88266 3.02196 8.09417 2.32455 6.69457Z" fill="#ffffff"/>
</svg>
