<svg width="14" height="14" viewBox="0 0 14 14" fill="none" xmlns="http://www.w3.org/2000/svg">
<path fill-rule="evenodd" clip-rule="evenodd" d="M2.21918 2.21914C4.86183 -0.42352 9.14789 -0.42352 11.7905 2.21914C14.4332 4.86179 14.4332 9.14785 11.7905 11.7905C9.14789 14.4332 4.86183 14.4332 2.21918 11.7905C-0.423482 9.14785 -0.423482 4.86179 2.21918 2.21914ZM3.01874 3.0187C5.21972 0.817709 8.78979 0.817709 10.9909 3.0187C13.1921 5.21969 13.1919 8.78975 10.9909 10.9909C8.78995 13.192 5.21988 13.1919 3.01874 10.9909C0.817593 8.78991 0.817747 5.21984 3.01874 3.0187Z" fill="#808191"/>
<path fill-rule="evenodd" clip-rule="evenodd" d="M2.52832 7.18377C3.14947 5.48511 4.40024 5.77218 4.16138 4.08494C4.04677 5.6531 2.98958 5.15288 2.52832 7.18377Z" fill="#808191"/>
<path fill-rule="evenodd" clip-rule="evenodd" d="M2.62366 7.1452C3.31715 6.01868 4.01524 6.29221 4.18932 5.1209C3.825 6.18894 3.28349 5.78124 2.62366 7.1452Z" fill="#808191"/>
<path fill-rule="evenodd" clip-rule="evenodd" d="M2.45142 7.0426C2.71982 5.68938 3.574 5.66488 3.27276 4.48061C3.32931 5.64407 2.58559 5.47724 2.45142 7.0426Z" fill="#808191"/>
<path fill-rule="evenodd" clip-rule="evenodd" d="M11.401 6.26654C8.54904 7.24338 5.69655 8.22042 2.84458 9.19746C2.6684 9.25782 2.45797 9.11198 2.37609 8.87302L2.12015 8.12589C2.03829 7.88703 2.11523 7.64274 2.29142 7.58247C5.14339 6.60564 7.99587 5.6286 10.8478 4.65156C11.1224 4.55754 11.4133 4.67576 11.495 4.91472L11.751 5.66184C11.8327 5.90071 11.6755 6.1725 11.401 6.26654H11.401ZM9.44893 6.81397C9.48821 6.71152 9.49042 6.58064 9.44612 6.45127L9.19019 5.70414C9.14589 5.57477 9.06372 5.47282 8.96991 5.41596L2.82959 7.51921C2.92341 7.57606 3.00547 7.67802 3.04977 7.80739L3.30571 8.55452C3.35001 8.68389 3.34769 8.81478 3.30842 8.91722L9.44899 6.81397H9.44893Z" fill="#808191"/>
</svg>
