<svg width="38" height="36" viewBox="0 0 38 36" fill="none" xmlns="http://www.w3.org/2000/svg">
<rect width="38" height="36" rx="18" fill="#F7F7F7"/>
<path d="M28 12.45C27.325 12.75 26.65 12.975 25.9 13.05C26.65 12.6 27.25 11.85 27.55 11.025C26.8 11.475 26.05 11.775 25.225 11.925C24.55 11.175 23.575 10.725 22.525 10.725C20.5 10.725 18.85 12.375 18.85 14.4C18.85 14.7 18.85 15 18.925 15.225C15.775 15.075 13.075 13.575 11.275 11.325C10.9 11.925 10.75 12.525 10.75 13.2C10.75 14.475 11.425 15.6 12.4 16.275C11.8 16.275 11.2 16.125 10.75 15.825C10.75 15.825 10.75 15.825 10.75 15.9C10.75 17.7 12.025 19.2 13.675 19.5C13.375 19.575 13.075 19.65 12.7 19.65C12.475 19.65 12.25 19.65 12.025 19.575C12.475 21.075 13.825 22.125 15.475 22.125C14.2 23.1 12.625 23.7 10.9 23.7C10.6 23.7 10.3 23.7 10 23.625C11.65 24.675 13.6 25.275 15.625 25.275C22.45 25.275 26.125 19.65 26.125 14.775C26.125 14.625 26.125 14.475 26.125 14.325C26.875 13.8 27.475 13.125 28 12.45Z" fill="#55ACEE"/>
</svg>
