<svg width="173" height="36" viewBox="0 0 173 36" fill="none" xmlns="http://www.w3.org/2000/svg">
<path d="M29.8398 16.9045C30.0314 17.2378 30.1322 17.6156 30.1322 18C30.1322 18.3845 30.0314 18.7622 29.8398 19.0955L25.531 26.5289C25.3385 26.8608 25.0622 27.1363 24.7298 27.3279C24.3975 27.5194 24.0206 27.6204 23.637 27.6206L15.0656 27.6206C14.6846 27.6177 14.3109 27.5155 13.9815 27.324C13.652 27.1326 13.3782 26.8585 13.187 26.5289L8.87818 19.0955C8.68663 18.7622 8.58582 18.3845 8.58582 18C8.58582 17.6156 8.68663 17.2378 8.87818 16.9045L11.2583 12.8001L16.5546 21.8575C16.6418 22.0126 16.7691 22.1413 16.9232 22.2302C17.0772 22.3191 17.2524 22.3649 17.4302 22.3628L21.2877 22.3628C21.4656 22.3649 21.6408 22.3191 21.7948 22.2302C21.9489 22.1413 22.0762 22.0126 22.1634 21.8575L24.0921 18.4899C24.1795 18.3386 24.2255 18.167 24.2255 17.9923C24.2255 17.8176 24.1795 17.646 24.0921 17.4947L15.3973 2.45046C15.0956 1.92868 14.662 1.49541 14.14 1.19412C13.618 0.892825 13.0259 0.7341 12.4232 0.733871L11.644 0.733871C10.9544 0.733608 10.2769 0.914936 9.6797 1.25961C9.08244 1.60428 8.58648 2.10015 8.24169 2.69734L0.526706 16.0404C0.181668 16.6372 -7.84862e-07 17.3145 -7.54727e-07 18.0039C-7.24593e-07 18.6933 0.181668 19.3705 0.526706 19.9673L8.2417 33.3104C8.58697 33.9069 9.08314 34.402 9.68036 34.746C10.2776 35.0899 10.9548 35.2707 11.644 35.27L27.074 35.27C27.7636 35.2703 28.441 35.089 29.0383 34.7443C29.6355 34.3996 30.1315 33.9037 30.4763 33.3066L38.1913 19.9635C38.5363 19.3666 38.718 18.6894 38.718 18C38.718 17.3106 38.5363 16.6334 38.1913 16.0366L30.4763 2.69348C30.1315 2.09629 29.6355 1.60042 29.0383 1.25575C28.441 0.911074 27.7636 0.729754 27.074 0.730014L20.5162 0.730014L29.8398 16.9045Z" fill="#475BE8"/>
<path d="M56.843 28V20.625L50.718 10H54.2305L58.368 17.175L62.493 10H66.0055L59.893 20.625V28H56.843ZM69.5243 28.375C68.5493 28.375 67.7243 28.1917 67.0493 27.825C66.3743 27.45 65.8618 26.9542 65.5118 26.3375C65.1701 25.7208 64.9993 25.0417 64.9993 24.3C64.9993 23.65 65.1076 23.0667 65.3243 22.55C65.5409 22.025 65.8743 21.575 66.3243 21.2C66.7743 20.8167 67.3576 20.5042 68.0743 20.2625C68.6159 20.0875 69.2493 19.9292 69.9743 19.7875C70.7076 19.6458 71.4993 19.5167 72.3493 19.4C73.2076 19.275 74.1034 19.1417 75.0368 19L73.9618 19.6125C73.9701 18.6792 73.7618 17.9917 73.3368 17.55C72.9118 17.1083 72.1951 16.8875 71.1868 16.8875C70.5784 16.8875 69.9909 17.0292 69.4243 17.3125C68.8576 17.5958 68.4618 18.0833 68.2368 18.775L65.4868 17.9125C65.8201 16.7708 66.4534 15.8542 67.3868 15.1625C68.3284 14.4708 69.5951 14.125 71.1868 14.125C72.3868 14.125 73.4409 14.3208 74.3493 14.7125C75.2659 15.1042 75.9451 15.7458 76.3868 16.6375C76.6284 17.1125 76.7743 17.6 76.8243 18.1C76.8743 18.5917 76.8993 19.1292 76.8993 19.7125V28H74.2618V25.075L74.6993 25.55C74.0909 26.525 73.3784 27.2417 72.5618 27.7C71.7534 28.15 70.7409 28.375 69.5243 28.375ZM70.1243 25.975C70.8076 25.975 71.3909 25.8542 71.8743 25.6125C72.3576 25.3708 72.7409 25.075 73.0243 24.725C73.3159 24.375 73.5118 24.0458 73.6118 23.7375C73.7701 23.3542 73.8576 22.9167 73.8743 22.425C73.8993 21.925 73.9118 21.5208 73.9118 21.2125L74.8368 21.4875C73.9284 21.6292 73.1493 21.7542 72.4993 21.8625C71.8493 21.9708 71.2909 22.075 70.8243 22.175C70.3576 22.2667 69.9451 22.3708 69.5868 22.4875C69.2368 22.6125 68.9409 22.7583 68.6993 22.925C68.4576 23.0917 68.2701 23.2833 68.1368 23.5C68.0118 23.7167 67.9493 23.9708 67.9493 24.2625C67.9493 24.5958 68.0326 24.8917 68.1993 25.15C68.3659 25.4 68.6076 25.6 68.9243 25.75C69.2493 25.9 69.6493 25.975 70.1243 25.975ZM80.1536 28V14.5H82.8161V17.7875L82.4911 17.3625C82.6577 16.9125 82.8786 16.5042 83.1536 16.1375C83.4369 15.7625 83.7744 15.4542 84.1661 15.2125C84.4994 14.9875 84.8661 14.8125 85.2661 14.6875C85.6744 14.5542 86.0911 14.475 86.5161 14.45C86.9411 14.4167 87.3536 14.4333 87.7536 14.5V17.3125C87.3536 17.1958 86.8911 17.1583 86.3661 17.2C85.8494 17.2417 85.3827 17.3875 84.9661 17.6375C84.5494 17.8625 84.2077 18.15 83.9411 18.5C83.6827 18.85 83.4911 19.25 83.3661 19.7C83.2411 20.1417 83.1786 20.6208 83.1786 21.1375V28H80.1536ZM90.3889 12.45V9.6875H93.4014V12.45H90.3889ZM90.3889 28V14.5H93.4014V28H90.3889ZM102.821 34.375C102.071 34.375 101.35 34.2583 100.658 34.025C99.9749 33.7917 99.3583 33.4542 98.8083 33.0125C98.2583 32.5792 97.8083 32.0542 97.4583 31.4375L100.233 30.0625C100.492 30.5542 100.854 30.9167 101.321 31.15C101.796 31.3917 102.3 31.5125 102.833 31.5125C103.458 31.5125 104.017 31.4 104.508 31.175C105 30.9583 105.379 30.6333 105.646 30.2C105.921 29.775 106.05 29.2417 106.033 28.6V24.7625H106.408V14.5H109.046V28.65C109.046 28.9917 109.029 29.3167 108.996 29.625C108.971 29.9417 108.925 30.25 108.858 30.55C108.658 31.425 108.275 32.1417 107.708 32.7C107.142 33.2667 106.437 33.6875 105.596 33.9625C104.762 34.2375 103.837 34.375 102.821 34.375ZM102.558 28.375C101.317 28.375 100.233 28.0625 99.3083 27.4375C98.3833 26.8125 97.6666 25.9625 97.1583 24.8875C96.6499 23.8125 96.3958 22.6 96.3958 21.25C96.3958 19.8833 96.6499 18.6667 97.1583 17.6C97.6749 16.525 98.4041 15.6792 99.3458 15.0625C100.287 14.4375 101.396 14.125 102.671 14.125C103.954 14.125 105.029 14.4375 105.896 15.0625C106.771 15.6792 107.433 16.525 107.883 17.6C108.333 18.675 108.558 19.8917 108.558 21.25C108.558 22.5917 108.333 23.8042 107.883 24.8875C107.433 25.9625 106.762 26.8125 105.871 27.4375C104.979 28.0625 103.875 28.375 102.558 28.375ZM103.021 25.675C103.829 25.675 104.479 25.4917 104.971 25.125C105.471 24.75 105.833 24.2292 106.058 23.5625C106.292 22.8958 106.408 22.125 106.408 21.25C106.408 20.3667 106.292 19.5958 106.058 18.9375C105.833 18.2708 105.479 17.7542 104.996 17.3875C104.512 17.0125 103.887 16.825 103.121 16.825C102.312 16.825 101.646 17.025 101.121 17.425C100.596 17.8167 100.208 18.35 99.9583 19.025C99.7083 19.6917 99.5833 20.4333 99.5833 21.25C99.5833 22.075 99.7041 22.825 99.9458 23.5C100.196 24.1667 100.575 24.6958 101.083 25.0875C101.592 25.4792 102.237 25.675 103.021 25.675ZM116.326 28.375C115.351 28.375 114.526 28.1917 113.851 27.825C113.176 27.45 112.664 26.9542 112.314 26.3375C111.972 25.7208 111.801 25.0417 111.801 24.3C111.801 23.65 111.909 23.0667 112.126 22.55C112.343 22.025 112.676 21.575 113.126 21.2C113.576 20.8167 114.159 20.5042 114.876 20.2625C115.418 20.0875 116.051 19.9292 116.776 19.7875C117.509 19.6458 118.301 19.5167 119.151 19.4C120.009 19.275 120.905 19.1417 121.839 19L120.764 19.6125C120.772 18.6792 120.564 17.9917 120.139 17.55C119.714 17.1083 118.997 16.8875 117.989 16.8875C117.38 16.8875 116.793 17.0292 116.226 17.3125C115.659 17.5958 115.264 18.0833 115.039 18.775L112.289 17.9125C112.622 16.7708 113.255 15.8542 114.189 15.1625C115.13 14.4708 116.397 14.125 117.989 14.125C119.189 14.125 120.243 14.3208 121.151 14.7125C122.068 15.1042 122.747 15.7458 123.189 16.6375C123.43 17.1125 123.576 17.6 123.626 18.1C123.676 18.5917 123.701 19.1292 123.701 19.7125V28H121.064V25.075L121.501 25.55C120.893 26.525 120.18 27.2417 119.364 27.7C118.555 28.15 117.543 28.375 116.326 28.375ZM116.926 25.975C117.609 25.975 118.193 25.8542 118.676 25.6125C119.159 25.3708 119.543 25.075 119.826 24.725C120.118 24.375 120.314 24.0458 120.414 23.7375C120.572 23.3542 120.659 22.9167 120.676 22.425C120.701 21.925 120.714 21.5208 120.714 21.2125L121.639 21.4875C120.73 21.6292 119.951 21.7542 119.301 21.8625C118.651 21.9708 118.093 22.075 117.626 22.175C117.159 22.2667 116.747 22.3708 116.389 22.4875C116.039 22.6125 115.743 22.7583 115.501 22.925C115.259 23.0917 115.072 23.2833 114.939 23.5C114.814 23.7167 114.751 23.9708 114.751 24.2625C114.751 24.5958 114.834 24.8917 115.001 25.15C115.168 25.4 115.409 25.6 115.726 25.75C116.051 25.9 116.451 25.975 116.926 25.975Z" fill="#11142D"/>
</svg>
